<svg width="18" height="18" viewBox="0 0 18 18" fill="none" xmlns="http://www.w3.org/2000/svg">
<path d="M3.9175 17.5H0.289375V5.81625H3.9175V17.5ZM2.10125 4.2225C0.94125 4.2225 0 3.26125 0 2.10125C0 1.54396 0.221381 1.0095 0.615442 0.615442C1.0095 0.221381 1.54396 0 2.10125 0C2.65854 0 3.193 0.221381 3.58706 0.615442C3.98112 1.0095 4.2025 1.54396 4.2025 2.10125C4.2025 3.26125 3.26125 4.2225 2.10125 4.2225ZM17.4962 17.5H13.8762V11.8125C13.8762 10.4569 13.8487 8.71875 11.99 8.71875C10.1037 8.71875 9.81437 10.1912 9.81437 11.715V17.5H6.19V5.81625H9.66937V7.41H9.72C10.2044 6.49188 11.3875 5.52312 13.1525 5.52312C16.8244 5.52312 17.4994 7.94125 17.4994 11.0819V17.5H17.4962Z" fill="white"/>
</svg>
